<svg width="61" height="27" viewBox="0 0 61 27" fill="none" xmlns="http://www.w3.org/2000/svg">
<rect x="0.75" y="0.75" width="59.5" height="25.5" rx="12.75" fill="#3A3A3A" fill-opacity="0.5" stroke="#848484" stroke-width="1.5"/>
<path d="M21.5 12.634C22.1667 13.0189 22.1667 13.9811 21.5 14.366L13.25 19.1292C12.5833 19.5141 11.75 19.0329 11.75 18.2631L11.75 8.73686C11.75 7.96706 12.5833 7.48593 13.25 7.87083L21.5 12.634Z" fill="#848484"/>
<path d="M32.588 13.452C32.892 13.452 33.156 13.414 33.38 13.338C33.608 13.262 33.794 13.158 33.938 13.026C34.086 12.89 34.196 12.73 34.268 12.546C34.34 12.362 34.376 12.16 34.376 11.94C34.376 11.5 34.23 11.162 33.938 10.926C33.65 10.69 33.208 10.572 32.612 10.572H31.58V13.452H32.588ZM36.74 18H35.282C35.006 18 34.806 17.892 34.682 17.676L32.858 14.898C32.79 14.794 32.714 14.72 32.63 14.676C32.55 14.632 32.43 14.61 32.27 14.61H31.58V18H29.966V9.324H32.612C33.2 9.324 33.704 9.386 34.124 9.51C34.548 9.63 34.894 9.8 35.162 10.02C35.434 10.24 35.634 10.504 35.762 10.812C35.89 11.116 35.954 11.452 35.954 11.82C35.954 12.112 35.91 12.388 35.822 12.648C35.738 12.908 35.614 13.144 35.45 13.356C35.29 13.568 35.09 13.754 34.85 13.914C34.614 14.074 34.344 14.2 34.04 14.292C34.144 14.352 34.24 14.424 34.328 14.508C34.416 14.588 34.496 14.684 34.568 14.796L36.74 18ZM42.5126 11.844V18H41.6066C41.4106 18 41.2866 17.91 41.2346 17.73L41.1326 17.238C40.8806 17.494 40.6026 17.702 40.2986 17.862C39.9946 18.018 39.6366 18.096 39.2246 18.096C38.8886 18.096 38.5906 18.04 38.3306 17.928C38.0746 17.812 37.8586 17.65 37.6826 17.442C37.5066 17.234 37.3726 16.988 37.2806 16.704C37.1926 16.416 37.1486 16.1 37.1486 15.756V11.844H38.6306V15.756C38.6306 16.132 38.7166 16.424 38.8886 16.632C39.0646 16.836 39.3266 16.938 39.6746 16.938C39.9306 16.938 40.1706 16.882 40.3946 16.77C40.6186 16.654 40.8306 16.496 41.0306 16.296V11.844H42.5126ZM45.368 12.6C45.492 12.476 45.622 12.362 45.758 12.258C45.898 12.15 46.044 12.06 46.196 11.988C46.352 11.912 46.518 11.854 46.694 11.814C46.87 11.77 47.062 11.748 47.27 11.748C47.606 11.748 47.904 11.806 48.164 11.922C48.424 12.034 48.64 12.194 48.812 12.402C48.988 12.606 49.12 12.852 49.208 13.14C49.3 13.424 49.346 13.738 49.346 14.082V18H47.864V14.082C47.864 13.706 47.778 13.416 47.606 13.212C47.434 13.004 47.172 12.9 46.82 12.9C46.564 12.9 46.324 12.958 46.1 13.074C45.876 13.19 45.664 13.348 45.464 13.548V18H43.982V11.844H44.888C45.08 11.844 45.206 11.934 45.266 12.114L45.368 12.6Z" fill="#848484"/>
</svg>
